<?xml version="1.0" standalone="no"?><!DOCTYPE svg PUBLIC "-//W3C//DTD SVG 1.1//EN" "http://www.w3.org/Graphics/SVG/1.1/DTD/svg11.dtd"><svg t="1517995529029" class="icon" style="" viewBox="0 0 1024 1024" version="1.1" xmlns="http://www.w3.org/2000/svg" p-id="1889" xmlns:xlink="http://www.w3.org/1999/xlink" width="200" height="200"><defs><style type="text/css"></style></defs><path d="M903.05476835 254.63284622H103.64955307c-22.64341618 0-41.07505209-18.43163591-41.07505209-41.07505209s18.43163591-41.07505209 41.07505209-41.07505208h799.51589831c22.64341618 0 41.07505209 18.43163591 41.07505209 41.07505208a41.15078258 41.15078258 0 0 1-41.18573512 41.07505209zM903.05476835 546.95253333H103.64955307c-22.64341618 0-41.07505209-18.43163591-41.07505209-41.07505208s18.43163591-41.07505209 41.07505209-41.0750521h799.51589831c22.64341618 0 41.07505209 18.43163591 41.07505209 41.0750521a41.15078258 41.15078258 0 0 1-41.18573512 41.07505208zM904.70918827 836.28377885H105.30397298c-22.64341618 0-41.07505209-18.43163591-41.07505209-41.0750521s18.43163591-41.07505209 41.07505209-41.07505208h799.51589831c22.64341618 0 41.07505209 18.43163591 41.07505209 41.07505208a41.15078258 41.15078258 0 0 1-41.18573511 41.0750521z" p-id="1890"></path></svg>