<?xml version="1.0" standalone="no"?><!DOCTYPE svg PUBLIC "-//W3C//DTD SVG 1.1//EN" "http://www.w3.org/Graphics/SVG/1.1/DTD/svg11.dtd"><svg t="1516864365318" class="icon" style="" viewBox="0 0 1024 1024" version="1.1" xmlns="http://www.w3.org/2000/svg" p-id="1707" xmlns:xlink="http://www.w3.org/1999/xlink" width="200" height="200"><defs><style type="text/css"></style></defs><path d="M588.28709584 512l362.37581306-362.37581305c21.06784093-21.06535785 21.06784093-55.22049646 0-76.28833738-21.06535785-21.06784093-55.22049646-21.06784093-76.2883374 0L511.99875845 435.71042107 149.62294542 73.33460802c-21.06535785-21.06784093-55.22049646-21.06784093-76.2883374 0-21.06535785 21.06784093-21.06535785 55.22297955 0 76.2883374l362.37581305 362.37581303L73.33336527 874.37581305c-21.06535785 21.06784093-21.06535785 55.22297955 0 76.28833738 21.06784093 21.06784093 55.22297955 21.06784093 76.28833739 0l362.37581304-362.37581304 362.37581305 362.37581304c21.06784093 21.06784093 55.22297955 21.06784093 76.28833738 0 21.06784093-21.06535785 21.06784093-55.22049646 0-76.28833738L588.28709584 512z" p-id="1708"></path></svg>