<?xml version="1.0" standalone="no"?><!DOCTYPE svg PUBLIC "-//W3C//DTD SVG 1.1//EN" "http://www.w3.org/Graphics/SVG/1.1/DTD/svg11.dtd"><svg t="1518163681645" class="icon" style="" viewBox="0 0 1024 1024" version="1.1" xmlns="http://www.w3.org/2000/svg" p-id="1765" xmlns:xlink="http://www.w3.org/1999/xlink" width="200" height="200"><defs><style type="text/css"></style></defs><path d="M512.0010912 35.50933867c-181.97713387 0-310.2315104 146.95331947-296.20866773 399.61771626-10.0202144 18.76225067-65.7262752 160.3725472-83.2540096 219.96553387s-28.04350187 158.18185387-9.20156907 162.1255392c18.8419328 3.94368533 82.815216-95.9604704 82.815216-95.9604704 4.38138773 121.81327787 97.7134624 187.53955307 95.522768 187.53955307s-106.03853547 31.5483936-86.75890133 62.22138346 267.72637227 12.26875947 297.08407253 9.20156907c29.35770027 3.06718933 277.8044384 21.47032853 297.08407253-9.20156907s-84.56820693-62.22138347-86.75890133-62.22138346 91.14138027-65.7262752 95.522768-187.53955307c0 0 63.9743744 99.90415573 82.815216 95.9604704 18.8419328-3.94368533 8.32507307-102.53364373-9.20156907-162.1255392s-73.3429472-201.9313312-83.2540096-219.96553387C821.21093333 199.38132053 706.60063893 35.50933867 512.0010912 35.50933867z" p-id="1766"></path></svg>