<?xml version="1.0" standalone="no"?><!DOCTYPE svg PUBLIC "-//W3C//DTD SVG 1.1//EN" "http://www.w3.org/Graphics/SVG/1.1/DTD/svg11.dtd"><svg t="1517883796117" class="icon" style="" viewBox="0 0 1024 1024" version="1.1" xmlns="http://www.w3.org/2000/svg" p-id="2433" xmlns:xlink="http://www.w3.org/1999/xlink" width="200" height="200"><defs><style type="text/css"></style></defs><path d="M512.30528 32.42432c-265.0416 0-479.90112 214.85856-479.90112 479.90112s214.85856 479.90112 479.90112 479.90112 479.90112-214.85856 479.90112-479.90112S777.34688 32.42432 512.30528 32.42432zM322.1888 750.70208c-27.13536 0-49.13184-21.99936-49.13184-49.13472 0-27.13728 21.99744-49.13472 49.13184-49.13472s49.13472 21.99744 49.13472 49.13472C371.32352 728.70272 349.32416 750.70208 322.1888 750.70208zM518.68448 751.67552c0-135.89376-110.55456-246.44544-246.36096-246.44544L272.32352 401.46656c193.49856 0 350.19264 156.86592 350.19264 350.20992L518.68448 751.67648zM707.33984 751.67552c0-239.8848-195.06144-435.09696-435.01632-435.09696L272.32352 212.80736c297.6432 0 538.86144 241.3632 538.86144 538.86816L707.33984 751.67552z" p-id="2434"></path></svg>