<?xml version="1.0" standalone="no"?><!DOCTYPE svg PUBLIC "-//W3C//DTD SVG 1.1//EN" "http://www.w3.org/Graphics/SVG/1.1/DTD/svg11.dtd"><svg t="1517879423453" class="icon" style="" viewBox="0 0 1024 1024" version="1.1" xmlns="http://www.w3.org/2000/svg" p-id="1964" xmlns:xlink="http://www.w3.org/1999/xlink" width="200" height="200"><defs><style type="text/css"></style></defs><path d="M973.89083844 889.10784125L787.89790156 703.14272562c52.47258375-70.06513594 83.55263156-157.08293812 83.55263157-251.37069093 0-231.8028375-187.88285531-419.71543313-419.71543313-419.71543313-231.8028375 0-419.71543313 187.91259562-419.71543312 419.71543313 0 231.83257781 187.91259562 419.71543313 419.71543312 419.71543312 94.29063094 0 181.31131125-31.08100687 251.37740625-83.55742781L889.04788156 973.86061812c23.44458469 23.47432406 61.42811156 23.47432406 84.84295688 0C997.27498344 950.47647312 997.27498344 912.49198625 973.89083844 889.10784125zM451.7351 751.5687725c-165.51753938 0-299.79673781-134.18902031-299.79673781-299.79673781 0-165.51753938 134.27919844-299.73725812 299.79673781-299.73725813 165.6077175 0 299.79673781 134.21875969 299.79673781 299.73725813C751.53183781 617.37975219 617.3428175 751.5687725 451.7351 751.5687725z" p-id="1965"></path></svg>
