<?xml version="1.0" encoding="utf-8"?>
<!-- Generator: Adobe Illustrator 22.0.1, SVG Export Plug-In . SVG Version: 6.00 Build 0)  -->
<svg version="1.1" id="图层_1" xmlns="http://www.w3.org/2000/svg" xmlns:xlink="http://www.w3.org/1999/xlink" x="0px" y="0px"
	 viewBox="0 0 200 200" style="enable-background:new 0 0 200 200;" xml:space="preserve">
<style type="text/css">
	.st0{fill:#F8E600;}
</style>
<path class="st0" d="M103.3,175.1c3.9,0.1,7.6-1.9,9.6-5.2L191,40c4.4-7.2-0.9-16.4-9.3-16.4H25.6c-8.4,0-13.6,9.2-9.3,16.4
	l78,129.9C96.3,173.1,99.6,175,103.3,175.1L103.3,175.1z M103.6,143.4L44.7,45.2l117.8,0L103.6,143.4L103.6,143.4z"/>
<path d="M93.4,182.4c3.9,0.1,7.6-1.9,9.6-5.2l78-129.9c4.4-7.2-0.9-16.4-9.3-16.4H15.7c-8.4,0-13.6,9.2-9.3,16.4l78,129.9
	C86.4,180.3,89.7,182.2,93.4,182.4L93.4,182.4z M93.7,150.6L34.8,52.4l117.8,0L93.7,150.6L93.7,150.6z"/>
</svg>
