<?xml version="1.0" standalone="no"?><!DOCTYPE svg PUBLIC "-//W3C//DTD SVG 1.1//EN" "http://www.w3.org/Graphics/SVG/1.1/DTD/svg11.dtd"><svg t="1518163686546" class="icon" style="" viewBox="0 0 1274 1024" version="1.1" xmlns="http://www.w3.org/2000/svg" p-id="1873" xmlns:xlink="http://www.w3.org/1999/xlink" width="248.828125" height="200"><defs><style type="text/css"></style></defs><path d="M840.17117 322.45385c13.68358594 0 27.2372325 0.98953594 40.68093094 2.43885656C844.29923469 156.86147094 662.28455375 32 454.51194781 32 222.23082969 32 32 188.28674094 32 386.76370437c0 114.51632062 63.26034656 208.6022175 169.04076188 281.58800532l-42.24019969 125.46118969 147.69076969-73.09573594c52.87521469 10.29517406 95.27533969 20.8902075 148.01062031 20.8902075 13.26378281 0 26.42761219-0.62970469 39.47149781-1.64922656-8.266125-27.88692844-13.04388562-57.09323719-13.04388562-87.39903188C480.93956 470.34452563 639.39528313 322.45385 840.17117 322.45385zM612.95767625 209.36685969c31.82508187 0 52.85522437 20.64032531 52.85522437 52.04560406 0 31.26534469-21.0301425 52.23551438-52.85522437 52.23551438-31.66515656 0-63.42027188-20.97017063-63.42027188-52.23551438C549.53740438 230.00718406 581.28252406 209.36685969 612.95767625 209.36685969zM317.24629063 313.64797719c-31.68514781 0-63.63017344-20.97017063-63.63017344-52.23551438 0-31.40527875 31.95502125-52.04560406 63.63017343-52.04560406 31.68514781 0 52.73528063 20.64032531 52.73528063 52.04560406C369.97157563 292.6778075 348.93143844 313.64797719 317.24629063 313.64797719z" p-id="1874"></path><path d="M1225.79041063 647.58144594c0-166.77182531-169.03076719-302.72809594-358.90176469-302.72809594-201.07574531 0-359.40153094 135.95627063-359.40153094 302.72809594 0 167.02170844 158.32578469 302.63813813 359.40153094 302.63813812 42.05028937 0 84.50039063-10.43510812 126.78057187-20.8902075l115.92565969 62.66062781-31.79509594-104.28111843C1162.59003594 824.91831969 1225.79041063 741.61736656 1225.79041063 647.58144594zM750.38325781 595.36592187c-21.05013281 0-42.25019531-20.64032531-42.25019531-41.75042906 0-20.75027344 21.2000625-41.69045719 42.25019531-41.69045718 31.94502562 0 52.85522437 20.94018469 52.85522438 41.69045718C803.23848219 574.73559313 782.32828344 595.36592187 750.38325781 595.36592187zM982.81430563 595.36592187c-20.91019875 0-42.00031219-20.64032531-42.00031219-41.75042906 0-20.75027344 21.09011437-41.69045719 42.00031219-41.69045718 31.64516625 0 52.85522437 20.94018469 52.85522437 41.69045718C1035.66953 574.73559313 1014.44947719 595.36592187 982.81430563 595.36592187z" p-id="1875"></path></svg>