<svg xmlns="http://www.w3.org/2000/svg" xmlns:xlink="http://www.w3.org/1999/xlink"><defs><symbol class="icon" viewBox="0 0 1024 1024" id="bars"><defs><style></style></defs><path d="M903.055 254.633H103.65c-22.644 0-41.075-18.432-41.075-41.075s18.431-41.075 41.075-41.075h799.515c22.644 0 41.076 18.431 41.076 41.075a41.15 41.15 0 0 1-41.186 41.075zm0 292.32H103.65c-22.644 0-41.075-18.432-41.075-41.076s18.431-41.075 41.075-41.075h799.515c22.644 0 41.076 18.432 41.076 41.075a41.15 41.15 0 0 1-41.186 41.076zm1.654 289.33H105.304c-22.643 0-41.075-18.43-41.075-41.074s18.432-41.075 41.075-41.075H904.82c22.643 0 41.075 18.431 41.075 41.075a41.15 41.15 0 0 1-41.186 41.075z" /></symbol><symbol class="icon" viewBox="0 0 1028 1024" id="github"><defs><style></style></defs><path d="M329.006 820.503q0-8.623 8.623-8.623t8.622 8.623-8.622 8.623-8.623-8.623zm-39.281-9.58q0-8.624 8.622-8.624 9.581 0 9.581 8.623 0 9.581-9.58 9.581-8.623 0-8.623-9.58zM510.084 32q99.64 0 187.305 37.844t152.815 102.994 102.994 152.815 37.844 187.305q0 77.605-23.473 148.982t-65.15 130.3T802.3 895.713t-127.425 69.46q-10.539 1.917-23.952.959t-16.287-17.246q-1.916-11.497-3.354-30.658t-1.916-39.282-.958-38.323-.479-26.827-3.353-22.036-7.665-25.868-8.623-22.515-6.227-12.934q-1.916-1.916 13.413-4.311t38.802-9.102 51.258-19.162 51.736-33.054 39.76-50.778 15.81-73.293q0-65.15-7.665-101.557t-16.288-54.611q-10.539-21.078-23.952-26.826 5.749-31.617 8.623-57.486 1.916-22.035.479-42.155T762.06 232.24q-10.539-4.79-31.138 1.916T688.287 251.4q-24.91 12.455-53.652 30.659-14.372-4.79-31.617-8.623-15.33-3.832-36.407-6.706t-46.946-2.875-49.342 2.875-41.676 5.748q-21.078 3.832-39.282 8.623-28.742-16.288-53.652-27.785-22.036-10.539-43.114-17.245t-30.659-2.874q-10.539 4.79-12.934 24.43t-1.437 42.635q.958 26.827 4.79 59.402-13.413 14.37-23.952 34.49-9.58 17.246-16.766 42.156t-7.186 55.57q0 44.071 9.102 77.604t24.431 57.964 34.97 41.198 39.76 27.305q47.905 24.91 109.222 28.743-7.665 8.622-13.413 16.287-4.79 6.707-8.623 12.934t-3.832 9.102-.48 7.186-1.436 9.101l-1.916 9.581q-9.581 3.833-20.12 6.707-8.623 2.874-19.162 4.79T331.88 802.3t-25.868-11.018-31.138-25.389-28.742-28.263-18.683-19.641q-5.748-4.79-15.33-8.144t-19.16-5.27-17.246-2.394-10.54.479q-5.748 2.874-8.622 8.143t4.79 8.144q3.833 1.916 11.018 7.186t14.85 12.455 14.372 14.371 9.58 11.976 8.623 21.078 18.683 33.533 34.491 30.659 57.964 13.413q24.91 0 37.844-.48t19.641-1.436v73.772q0 5.749-1.437 12.934t-5.27 12.455-10.538 7.665-17.246-.48q-1.916-.957-5.748-.957-69.94-24.91-128.384-69.461T118.707 793.677 52.12 662.898t-23.952-149.94q0-99.64 37.844-187.305t102.994-152.815T322.299 69.844 510.084 32zM388.407 855.952q3.833.958 5.749 1.916 4.79 2.875-5.749 3.833v-5.749zm-19.161-42.156q0-9.58 8.622-9.58t8.623 9.58q0 8.623-8.623 8.623t-8.622-8.623zm-170.54-95.808q0-5.748 6.707-5.748t6.707 5.748q0 6.707-6.707 6.707t-6.706-6.707zm64.192 72.814q0-8.622 8.623-8.622t8.623 8.622q0 9.581-8.623 9.581t-8.623-9.58zm-36.407-58.443q6.707 0 6.707 6.707t-6.707 6.706-6.707-6.706 6.707-6.707zm9.58 31.617q0-8.623 8.624-8.623t8.622 8.623q0 9.58-8.622 9.58t-8.623-9.58z" /></symbol><symbol class="icon" viewBox="0 0 1024 1024" id="left"><defs><style></style></defs><path d="M711.437 962.144c-15.286 0-29.523-5.879-40.167-16.564L281.573 555.189c-1.425-1.393-2.537-2.578-3.45-3.847l-2.304-2.905c-11.362-11.416-16.946-24.85-16.946-39.069 0-14.476 5.708-28.01 16.057-38.11L667.308 83.04c10.612-10.467 24.785-16.237 39.892-16.237 14.773 0 28.727 5.6 39.288 15.754 10.497 10.186 16.539 24.39 16.539 38.952 0 14.383-5.723 28.01-16.143 38.367l-353.969 350.17 358.486 359.429c10.25 10.31 15.91 23.781 15.91 37.994 0 14.89-6.053 28.86-17 39.334-10.42 9.89-24.25 15.34-38.874 15.34z" /></symbol><symbol class="icon" viewBox="0 0 1024 1024" id="qq"><defs><style></style></defs><path d="M512.001 35.51c-181.977 0-310.231 146.953-296.209 399.617-10.02 18.762-65.726 160.373-83.254 219.966s-28.043 158.181-9.201 162.125c18.842 3.944 82.815-95.96 82.815-95.96 4.381 121.813 97.714 187.54 95.523 187.54s-106.039 31.548-86.76 62.22S482.643 983.289 512 980.22c29.358 3.067 277.804 21.47 297.084-9.201s-84.568-62.222-86.759-62.222 91.142-65.726 95.523-187.54c0 0 63.974 99.905 82.815 95.961 18.842-3.944 8.325-102.534-9.201-162.125s-73.343-201.932-83.254-219.966C821.21 199.381 706.6 35.51 512 35.51z" /></symbol><symbol class="icon" viewBox="0 0 1024 1024" id="right"><defs><style></style></defs><path d="M312.563 61.856c15.286 0 29.523 5.879 40.167 16.564l389.697 390.391c1.425 1.393 2.537 2.578 3.45 3.847l2.304 2.905c11.362 11.416 16.946 24.85 16.946 39.069 0 14.476-5.708 28.01-16.057 38.11L356.692 940.96c-10.612 10.467-24.785 16.237-39.892 16.237-14.773 0-28.727-5.6-39.288-15.754-10.497-10.186-16.539-24.39-16.539-38.952 0-14.383 5.723-28.01 16.143-38.367l353.969-350.17-358.486-359.429c-10.25-10.31-15.91-23.781-15.91-37.994 0-14.89 6.053-28.86 17-39.334 10.42-9.89 24.25-15.34 38.874-15.34z" /></symbol><symbol class="icon" viewBox="0 0 1024 1024" id="rss"><defs><style></style></defs><path d="M512.305 32.424c-265.041 0-479.9 214.859-479.9 479.901s214.858 479.902 479.9 479.902 479.901-214.859 479.901-479.902-214.86-479.9-479.9-479.9zM322.19 750.702c-27.136 0-49.132-22-49.132-49.135 0-27.137 21.997-49.134 49.132-49.134s49.135 21.997 49.135 49.134c0 27.136-22 49.135-49.135 49.135zm196.495.974c0-135.894-110.554-246.446-246.36-246.446V401.467c193.498 0 350.192 156.865 350.192 350.21H518.684zm188.656 0c0-239.885-195.062-435.097-435.016-435.097V212.807c297.643 0 538.861 241.364 538.861 538.869H707.34z" /></symbol><symbol class="icon" viewBox="0 0 1024 1024" id="search"><defs><style></style></defs><path d="M973.89 889.108L787.899 703.143c52.472-70.065 83.553-157.083 83.553-251.371 0-231.803-187.883-419.715-419.716-419.715-231.803 0-419.715 187.912-419.715 419.715 0 231.833 187.912 419.715 419.715 419.715 94.29 0 181.311-31.08 251.378-83.557l185.935 185.93c23.444 23.475 61.428 23.475 84.843 0 23.384-23.384 23.384-61.368 0-84.752zm-522.155-137.54c-165.517 0-299.797-134.188-299.797-299.796 0-165.518 134.28-299.737 299.797-299.737 165.608 0 299.797 134.219 299.797 299.737 0 165.608-134.19 299.797-299.797 299.797z" /></symbol><symbol viewBox="0 0 200 200" id="triangle"><path d="M103.3 175.1c3.9.1 7.6-1.9 9.6-5.2L191 40c4.4-7.2-.9-16.4-9.3-16.4H25.6c-8.4 0-13.6 9.2-9.3 16.4l78 129.9c2 3.2 5.3 5.1 9 5.2zm.3-31.7L44.7 45.2h117.8l-58.9 98.2z" fill="#f8e600" /><path d="M93.4 182.4c3.9.1 7.6-1.9 9.6-5.2l78-129.9c4.4-7.2-.9-16.4-9.3-16.4h-156c-8.4 0-13.6 9.2-9.3 16.4l78 129.9c2 3.1 5.3 5 9 5.2zm.3-31.8L34.8 52.4h117.8l-58.9 98.2z" /></symbol><symbol class="icon" viewBox="0 0 1274 1024" id="wechat"><defs><style></style></defs><path d="M840.171 322.454c13.684 0 27.237.99 40.681 2.439C844.3 156.86 662.285 32 454.512 32 222.23 32 32 188.287 32 386.764c0 114.516 63.26 208.602 169.04 281.588l-42.24 125.46 147.691-73.095c52.876 10.295 95.276 20.89 148.011 20.89 13.264 0 26.428-.63 39.471-1.649-8.266-27.887-13.043-57.093-13.043-87.399.01-182.214 158.465-330.105 359.241-330.105zM612.958 209.367c31.825 0 52.855 20.64 52.855 52.045 0 31.266-21.03 52.236-52.855 52.236-31.665 0-63.42-20.97-63.42-52.236 0-31.405 31.745-52.045 63.42-52.045zM317.246 313.648c-31.685 0-63.63-20.97-63.63-52.236 0-31.405 31.955-52.045 63.63-52.045 31.685 0 52.736 20.64 52.736 52.045-.01 31.266-21.05 52.236-52.736 52.236z" /><path d="M1225.79 647.581c0-166.771-169.03-302.728-358.901-302.728-201.076 0-359.402 135.957-359.402 302.728 0 167.022 158.326 302.639 359.402 302.639 42.05 0 84.5-10.436 126.78-20.89l115.926 62.66-31.795-104.281c84.79-62.79 147.99-146.092 147.99-240.128zm-475.407-52.215c-21.05 0-42.25-20.64-42.25-41.75 0-20.75 21.2-41.691 42.25-41.691 31.945 0 52.855 20.94 52.855 41.69 0 21.12-20.91 41.75-52.855 41.75zm232.431 0c-20.91 0-42-20.64-42-41.75 0-20.75 21.09-41.691 42-41.691 31.645 0 52.856 20.94 52.856 41.69 0 21.12-21.22 41.75-52.856 41.75z" /></symbol><symbol class="icon" viewBox="0 0 1024 1024" id="weibo"><defs><style></style></defs><path d="M730.478 491.71S859.583 262.594 486.18 382.852c46.81-36.677 39.248-111.41 2.514-137.953C351.99 146.155 17.893 461.329 17.893 648.664c0 113.905 122.752 262.011 402.478 262.011 351.907 0 461.994-192.401 461.994-286.04 0-129.144-151.887-132.925-151.887-132.925zM431.945 861.39c-163.92 15.276-305.193-62.471-315.5-173.69-10.423-111.18 114.058-213.704 278.017-228.962 163.92-15.258 305.193 62.47 315.538 173.67 10.345 111.199-114.097 213.724-278.055 228.981z" /><path d="M374.06 538.98c-88.763 15.028-150.274 88.88-137.377 164.861 12.858 76.02 95.212 125.478 183.976 110.47 88.724-15.027 150.236-88.82 137.377-164.86-12.897-76.02-95.212-125.46-183.976-110.47zm-15.429 216.852c-28.673 7.87-57.808-7.024-65.08-33.279-7.197-26.331 10.19-54.025 38.826-61.932 28.673-7.907 57.808 6.986 65.041 33.279 7.235 26.293-10.115 53.987-38.787 61.932zm74.465-84.406c-14.74 0-26.696-11.918-26.696-26.658 0-14.72 11.956-26.677 26.696-26.677 14.74 0 26.657 11.976 26.657 26.677.001 14.74-11.917 26.658-26.657 26.658zM950.69 207.647C891.77 132.32 797.343 99.654 684.877 115.68c-18.961 2.687-32.166 20.248-29.46 39.228 2.668 18.923 20.172 32.07 39.21 29.421 111.372-15.89 171.04 27.138 201.48 66.06 39.956 51.147 51.242 124.039 28.039 181.327-7.197 17.753 1.343 37.982 19.115 45.16 4.28 1.727 8.655 2.552 13.013 2.552 13.684 0 26.657-8.176 32.127-21.649 32.242-79.55 17.099-180.06-37.713-250.13z" /><path d="M718.214 241.522c-18.886 2.705-32.09 20.266-29.384 39.21 2.706 18.942 20.172 32.089 39.21 29.42 31.859-4.567 56.675 3.091 71.568 22.13 13.415 17.197 17.388 42.433 9.75 61.415-7.197 17.752 1.382 37.961 19.115 45.16 4.317 1.726 8.655 2.533 13.012 2.533 13.685 0 26.696-8.176 32.128-21.65 17.1-42.145 9.48-93.235-19.385-130.16-17.714-22.686-58.957-59.075-136.014-48.058z" /></symbol></defs></svg>