<svg xmlns="http://www.w3.org/2000/svg" xmlns:xlink="http://www.w3.org/1999/xlink"><defs><symbol class="icon" viewBox="0 0 1024 1024" id="bars"><defs><style></style></defs><path d="M903.055 254.633H103.65c-22.644 0-41.075-18.432-41.075-41.075s18.431-41.075 41.075-41.075h799.515c22.644 0 41.076 18.431 41.076 41.075a41.15 41.15 0 0 1-41.186 41.075zm0 292.32H103.65c-22.644 0-41.075-18.432-41.075-41.076s18.431-41.075 41.075-41.075h799.515c22.644 0 41.076 18.432 41.076 41.075a41.15 41.15 0 0 1-41.186 41.076zm1.654 289.33H105.304c-22.643 0-41.075-18.43-41.075-41.074s18.432-41.075 41.075-41.075H904.82c22.643 0 41.075 18.431 41.075 41.075a41.15 41.15 0 0 1-41.186 41.075z" /></symbol><symbol class="icon" viewBox="0 0 1028 1024" id="github"><defs><style></style></defs><path d="M329.006 820.503q0-8.623 8.623-8.623t8.622 8.623-8.622 8.623-8.623-8.623zm-39.281-9.58q0-8.624 8.622-8.624 9.581 0 9.581 8.623 0 9.581-9.58 9.581-8.623 0-8.623-9.58zM510.084 32q99.64 0 187.305 37.844t152.815 102.994 102.994 152.815 37.844 187.305q0 77.605-23.473 148.982t-65.15 130.3T802.3 895.713t-127.425 69.46q-10.539 1.917-23.952.959t-16.287-17.246q-1.916-11.497-3.354-30.658t-1.916-39.282-.958-38.323-.479-26.827-3.353-22.036-7.665-25.868-8.623-22.515-6.227-12.934q-1.916-1.916 13.413-4.311t38.802-9.102 51.258-19.162 51.736-33.054 39.76-50.778 15.81-73.293q0-65.15-7.665-101.557t-16.288-54.611q-10.539-21.078-23.952-26.826 5.749-31.617 8.623-57.486 1.916-22.035.479-42.155T762.06 232.24q-10.539-4.79-31.138 1.916T688.287 251.4q-24.91 12.455-53.652 30.659-14.372-4.79-31.617-8.623-15.33-3.832-36.407-6.706t-46.946-2.875-49.342 2.875-41.676 5.748q-21.078 3.832-39.282 8.623-28.742-16.288-53.652-27.785-22.036-10.539-43.114-17.245t-30.659-2.874q-10.539 4.79-12.934 24.43t-1.437 42.635q.958 26.827 4.79 59.402-13.413 14.37-23.952 34.49-9.58 17.246-16.766 42.156t-7.186 55.57q0 44.071 9.102 77.604t24.431 57.964 34.97 41.198 39.76 27.305q47.905 24.91 109.222 28.743-7.665 8.622-13.413 16.287-4.79 6.707-8.623 12.934t-3.832 9.102-.48 7.186-1.436 9.101l-1.916 9.581q-9.581 3.833-20.12 6.707-8.623 2.874-19.162 4.79T331.88 802.3t-25.868-11.018-31.138-25.389-28.742-28.263-18.683-19.641q-5.748-4.79-15.33-8.144t-19.16-5.27-17.246-2.394-10.54.479q-5.748 2.874-8.622 8.143t4.79 8.144q3.833 1.916 11.018 7.186t14.85 12.455 14.372 14.371 9.58 11.976 8.623 21.078 18.683 33.533 34.491 30.659 57.964 13.413q24.91 0 37.844-.48t19.641-1.436v73.772q0 5.749-1.437 12.934t-5.27 12.455-10.538 7.665-17.246-.48q-1.916-.957-5.748-.957-69.94-24.91-128.384-69.461T118.707 793.677 52.12 662.898t-23.952-149.94q0-99.64 37.844-187.305t102.994-152.815T322.299 69.844 510.084 32zM388.407 855.952q3.833.958 5.749 1.916 4.79 2.875-5.749 3.833v-5.749zm-19.161-42.156q0-9.58 8.622-9.58t8.623 9.58q0 8.623-8.623 8.623t-8.622-8.623zm-170.54-95.808q0-5.748 6.707-5.748t6.707 5.748q0 6.707-6.707 6.707t-6.706-6.707zm64.192 72.814q0-8.622 8.623-8.622t8.623 8.622q0 9.581-8.623 9.581t-8.623-9.58zm-36.407-58.443q6.707 0 6.707 6.707t-6.707 6.706-6.707-6.706 6.707-6.707zm9.58 31.617q0-8.623 8.624-8.623t8.622 8.623q0 9.58-8.622 9.58t-8.623-9.58z" /></symbol><symbol class="icon" viewBox="0 0 1024 1024" id="left"><defs><style></style></defs><path d="M711.437 962.144c-15.286 0-29.523-5.879-40.167-16.564L281.573 555.189c-1.425-1.393-2.537-2.578-3.45-3.847l-2.304-2.905c-11.362-11.416-16.946-24.85-16.946-39.069 0-14.476 5.708-28.01 16.057-38.11L667.308 83.04c10.612-10.467 24.785-16.237 39.892-16.237 14.773 0 28.727 5.6 39.288 15.754 10.497 10.186 16.539 24.39 16.539 38.952 0 14.383-5.723 28.01-16.143 38.367l-353.969 350.17 358.486 359.429c10.25 10.31 15.91 23.781 15.91 37.994 0 14.89-6.053 28.86-17 39.334-10.42 9.89-24.25 15.34-38.874 15.34z" /></symbol><symbol class="icon" viewBox="0 0 1024 1024" id="qq"><defs><style></style></defs><path d="M512.001 35.51c-181.977 0-310.231 146.953-296.209 399.617-10.02 18.762-65.726 160.373-83.254 219.966s-28.043 158.181-9.201 162.125c18.842 3.944 82.815-95.96 82.815-95.96 4.381 121.813 97.714 187.54 95.523 187.54s-106.039 31.548-86.76 62.22S482.643 983.289 512 980.22c29.358 3.067 277.804 21.47 297.084-9.201s-84.568-62.222-86.759-62.222 91.142-65.726 95.523-187.54c0 0 63.974 99.905 82.815 95.961 18.842-3.944 8.325-102.534-9.201-162.125s-73.343-201.932-83.254-219.966C821.21 199.381 706.6 35.51 512 35.51z" /></symbol><symbol class="icon" viewBox="0 0 1024 1024" id="right"><defs><style></style></defs><path d="M312.563 61.856c15.286 0 29.523 5.879 40.167 16.564l389.697 390.391c1.425 1.393 2.537 2.578 3.45 3.847l2.304 2.905c11.362 11.416 16.946 24.85 16.946 39.069 0 14.476-5.708 28.01-16.057 38.11L356.692 940.96c-10.612 10.467-24.785 16.237-39.892 16.237-14.773 0-28.727-5.6-39.288-15.754-10.497-10.186-16.539-24.39-16.539-38.952 0-14.383 5.723-28.01 16.143-38.367l353.969-350.17-358.486-359.429c-10.25-10.31-15.91-23.781-15.91-37.994 0-14.89 6.053-28.86 17-39.334 10.42-9.89 24.25-15.34 38.874-15.34z" /></symbol><symbol class="icon" viewBox="0 0 1024 1024" id="rss"><defs><style></style></defs><path d="M512.305 32.424c-265.041 0-479.9 214.859-479.9 479.901s214.858 479.902 479.9 479.902 479.901-214.859 479.901-479.902-214.86-479.9-479.9-479.9zM322.19 750.702c-27.136 0-49.132-22-49.132-49.135 0-27.137 21.997-49.134 49.132-49.134s49.135 21.997 49.135 49.134c0 27.136-22 49.135-49.135 49.135zm196.495.974c0-135.894-110.554-246.446-246.36-246.446V401.467c193.498 0 350.192 156.865 350.192 350.21H518.684zm188.656 0c0-239.885-195.062-435.097-435.016-435.097V212.807c297.643 0 538.861 241.364 538.861 538.869H707.34z" /></symbol><symbol class="icon" viewBox="0 0 1024 1024" id="search"><defs><style></style></defs><path d="M973.89 889.108L787.899 703.143c52.472-70.065 83.553-157.083 83.553-251.371 0-231.803-187.883-419.715-419.716-419.715-231.803 0-419.715 187.912-419.715 419.715 0 231.833 187.912 419.715 419.715 419.715 94.29 0 181.311-31.08 251.378-83.557l185.935 185.93c23.444 23.475 61.428 23.475 84.843 0 23.384-23.384 23.384-61.368 0-84.752zm-522.155-137.54c-165.517 0-299.797-134.188-299.797-299.796 0-165.518 134.28-299.737 299.797-299.737 165.608 0 299.797 134.219 299.797 299.737 0 165.608-134.19 299.797-299.797 299.797z" /></symbol><symbol class="icon" viewBox="0 0 1024 1024" id="site"><defs><style></style></defs><path d="M714.55 251.05c-4.418-7.972-18.996-23.674-27.954-26.65-11.958-1.842-4.796 8.826-4.796 13.4-3.086 2.314-7.882 4.908-10.204 8-1.398 1.2 3.408 12.206 12.674 8.67s3.928 3.598 10.328 17.73 19.214 14.414 24.98 10.134c7.31-5.424-1.006-24.024-5.028-31.284zM751.6 341.2c-.002.012-.008.022-.01.034 0 .024.004.024.01-.034zM869.2 394.2c.8 0-3.6-.8 0 0z" /><path d="M512 64C264.6 64 64 264.6 64 512c0 247.402 200.6 448 448 448 247.402 0 448-200.598 448-448 0-247.4-200.598-448-448-448zM346.798 858.848c-11.03-6.266-18.748-15.12-21.922-31.858-7.894-41.616-.606-64.134 35.924-88.49 17.208-11.472 20.044-25.344 33.8-39.1 3.37-4.28 12.422-20.748 18.4-21.6 7.274-1.558 27.418-5.054 31.4-13 7.58-10.292 24.254-54.796 31.6-59.204 11.994-7.85 28.838-31.92 16.6-46.2-14.042-17.286-33.598-17.532-51.8-26.602-16.03-8.016-23.148-44.562-35.4-57.202-23.824-24.272-59.998-38.398-90-53.4-16.232-6.5-14.688-8.512-27.4 4.2-16.324 16.324-40.186-4.134-42.6-21-.18-5.604-6.592-36.432-2.8-38.8 35.912-22.45-16.656-17.28-21-27.6-10.71-29.986 26.016-53.72 50.8-56.2 27.77-3.476 33.568 43.79 44.2 39.8 5.112-2.552 5.132-24.788 5.8-29.6 2.534-16.058 7.176-18.546 22.8-24.35 18.196-6.758 32.126-15.234 51.4-18.45 22.012-6.39 40.634-3.066 57.6-17.2 7.776-5.83 13.408 3.16 20.8 4.8 15.998 3.198 19.4-22.2 19.4-31.8-.068-9.33 2.53-17.26-9.4-27.2-15.612-12.138-38.058-1.738-50.6 10.8-15.148 14.07-32.714 13.1-27.6-11.2 1.268-8.866 20.418-19.174 28-24 7.4-4.444 11.808 5.044 20.8 2.8 13.158-2.926 18.068 9.47 33.6 9.6 6.466-1.462 29.592-13.762 17.228-38.732 1.858-.018 3.712-.06 5.572-.06 3.71 0 7.414.068 11.11.172 5.61 17.762-11.93 32.886-3.11 55.228 17.58 42.95 31.984 6.028 49.4-14 5.698-5.698 9.266-4.422 18.6-6.2 5.792-.966 14.11-18.54 16.786-23.964a379.336 379.336 0 0 1 113.134 48.51c-14.894 1.584-18.696-2.792-18.468 14.754.084 6.634.594 26.638 10.548 28.3 16.554 1.95 13.562 13.664 29.102 15.7 14.886 1.952 5.632 15.106 11.702 28.1 6.786 20.454-39.612 26.604-48.604 29.6-27.28 9.108 12.68 48.82 30.4 44.6 5.634-1.408 24.43-3.804 25.734-10.134-.022-.646-3.672-22.024-1.734-24.466 3.066-3.868 10.246-5.892 21.552.51 26.748 15.146 40.292 51.4 71.794 58.59 4.292.978 11.72-.3 16.988 4.066 4.462 6.03 15.84 16.832 2.262 16.832-18.034-4.006-27.56 1.718-42.396-9.748-15.466-11.954-25.086-21.782-45.5-22.152-17.58-.318-33.36-7.638-51.476-4.7-10.1 1.638-20.076 5.622-29.824 8.6-9.234 3.076-11.02 19.53-20.4 21.4-38.934 9.162-30.522 46.338-37.546 75.826-2.702 11.324-12.05 42.006-1.852 52.174 18.24 17.708 39.566 42.07 66.352 45.926 14.412 2.074 45.908-9.152 55.646 5.474 4.124 8.208 14.894-6.06 17.8 1.202 7.326 21.976-8.526 36.372-8.674 57.102-.22 30.406 18.356 41.14-6.526 68.296-27.284 27.214-8.666 61.576-23.8 94-8.084 16.674-9.616 39.788-21.744 47.554a381.424 381.424 0 0 1-85.428 40.768c-53.254 17.676-110.31 23.344-166.034 16.912-29.238-3.376-58.082-10.114-85.76-20.13-7.538-2.726-14.56-5.01-20.944-7.408a384.355 384.355 0 0 1-14.292-6.446zm-83.4-54.19c-.936-.794-1.87-1.592-2.798-2.396a392.173 392.173 0 0 1-20.12-18.742 391.158 391.158 0 0 1-19.468-20.942l-.21-.246c-1.274-1.476-2.514-2.972-3.764-4.468C113.668 632.942 98.518 450.008 185.2 310.2c12.156 12.156-8.202 36.048 15 52 10.248 7.212 20.042 4.318 18 17.6-1.986 12.898 10.71 12.67 12.6 24 5.684 24.858 38.414 37.284 19.8 65.2-18.236 25.25-33.984 53.458-20.2 85.6 4.508 11.72 15.838 23.716 24.444 32.488 15.626 15.932 14.754 6.376 14.754 26.512-.312 8.746 10.522 17.794 9.4 23.4-2.002 16.022-5.808 31.86-7.8 47.8-3.584 57.276-.258 113.324 42.6 156.2-15.938-9.612-31.272-20.498-45.936-32.58a393.039 393.039 0 0 1-4.464-3.762z" /></symbol><symbol viewBox="0 0 200 200" id="triangle"><path d="M103.3 175.1c3.9.1 7.6-1.9 9.6-5.2L191 40c4.4-7.2-.9-16.4-9.3-16.4H25.6c-8.4 0-13.6 9.2-9.3 16.4l78 129.9c2 3.2 5.3 5.1 9 5.2zm.3-31.7L44.7 45.2h117.8l-58.9 98.2z" fill="#f8e600" /><path d="M93.4 182.4c3.9.1 7.6-1.9 9.6-5.2l78-129.9c4.4-7.2-.9-16.4-9.3-16.4h-156c-8.4 0-13.6 9.2-9.3 16.4l78 129.9c2 3.1 5.3 5 9 5.2zm.3-31.8L34.8 52.4h117.8l-58.9 98.2z" /></symbol><symbol class="icon" viewBox="0 0 1274 1024" id="wechat"><defs><style></style></defs><path d="M840.171 322.454c13.684 0 27.237.99 40.681 2.439C844.3 156.86 662.285 32 454.512 32 222.23 32 32 188.287 32 386.764c0 114.516 63.26 208.602 169.04 281.588l-42.24 125.46 147.691-73.095c52.876 10.295 95.276 20.89 148.011 20.89 13.264 0 26.428-.63 39.471-1.649-8.266-27.887-13.043-57.093-13.043-87.399.01-182.214 158.465-330.105 359.241-330.105zM612.958 209.367c31.825 0 52.855 20.64 52.855 52.045 0 31.266-21.03 52.236-52.855 52.236-31.665 0-63.42-20.97-63.42-52.236 0-31.405 31.745-52.045 63.42-52.045zM317.246 313.648c-31.685 0-63.63-20.97-63.63-52.236 0-31.405 31.955-52.045 63.63-52.045 31.685 0 52.736 20.64 52.736 52.045-.01 31.266-21.05 52.236-52.736 52.236z" /><path d="M1225.79 647.581c0-166.771-169.03-302.728-358.901-302.728-201.076 0-359.402 135.957-359.402 302.728 0 167.022 158.326 302.639 359.402 302.639 42.05 0 84.5-10.436 126.78-20.89l115.926 62.66-31.795-104.281c84.79-62.79 147.99-146.092 147.99-240.128zm-475.407-52.215c-21.05 0-42.25-20.64-42.25-41.75 0-20.75 21.2-41.691 42.25-41.691 31.945 0 52.855 20.94 52.855 41.69 0 21.12-20.91 41.75-52.855 41.75zm232.431 0c-20.91 0-42-20.64-42-41.75 0-20.75 21.09-41.691 42-41.691 31.645 0 52.856 20.94 52.856 41.69 0 21.12-21.22 41.75-52.856 41.75z" /></symbol><symbol class="icon" viewBox="0 0 1024 1024" id="weibo"><defs><style></style></defs><path d="M730.478 491.71S859.583 262.594 486.18 382.852c46.81-36.677 39.248-111.41 2.514-137.953C351.99 146.155 17.893 461.329 17.893 648.664c0 113.905 122.752 262.011 402.478 262.011 351.907 0 461.994-192.401 461.994-286.04 0-129.144-151.887-132.925-151.887-132.925zM431.945 861.39c-163.92 15.276-305.193-62.471-315.5-173.69-10.423-111.18 114.058-213.704 278.017-228.962 163.92-15.258 305.193 62.47 315.538 173.67 10.345 111.199-114.097 213.724-278.055 228.981z" /><path d="M374.06 538.98c-88.763 15.028-150.274 88.88-137.377 164.861 12.858 76.02 95.212 125.478 183.976 110.47 88.724-15.027 150.236-88.82 137.377-164.86-12.897-76.02-95.212-125.46-183.976-110.47zm-15.429 216.852c-28.673 7.87-57.808-7.024-65.08-33.279-7.197-26.331 10.19-54.025 38.826-61.932 28.673-7.907 57.808 6.986 65.041 33.279 7.235 26.293-10.115 53.987-38.787 61.932zm74.465-84.406c-14.74 0-26.696-11.918-26.696-26.658 0-14.72 11.956-26.677 26.696-26.677 14.74 0 26.657 11.976 26.657 26.677.001 14.74-11.917 26.658-26.657 26.658zM950.69 207.647C891.77 132.32 797.343 99.654 684.877 115.68c-18.961 2.687-32.166 20.248-29.46 39.228 2.668 18.923 20.172 32.07 39.21 29.421 111.372-15.89 171.04 27.138 201.48 66.06 39.956 51.147 51.242 124.039 28.039 181.327-7.197 17.753 1.343 37.982 19.115 45.16 4.28 1.727 8.655 2.552 13.013 2.552 13.684 0 26.657-8.176 32.127-21.649 32.242-79.55 17.099-180.06-37.713-250.13z" /><path d="M718.214 241.522c-18.886 2.705-32.09 20.266-29.384 39.21 2.706 18.942 20.172 32.089 39.21 29.42 31.859-4.567 56.675 3.091 71.568 22.13 13.415 17.197 17.388 42.433 9.75 61.415-7.197 17.752 1.382 37.961 19.115 45.16 4.317 1.726 8.655 2.533 13.012 2.533 13.685 0 26.696-8.176 32.128-21.65 17.1-42.145 9.48-93.235-19.385-130.16-17.714-22.686-58.957-59.075-136.014-48.058z" /></symbol></defs></svg>